<?xml version="1.0" encoding="utf-8"?>
<!-- Generator: Adobe Illustrator 26.5.2, SVG Export Plug-In . SVG Version: 6.00 Build 0)  -->
<svg version="1.1" id="레이어_1" xmlns="http://www.w3.org/2000/svg" xmlns:xlink="http://www.w3.org/1999/xlink" x="0px"
	 y="0px" viewBox="0 0 360 180" style="enable-background:new 0 0 360 180;" xml:space="preserve">
<style type="text/css">
	.st0{fill:#FFFFFF;}
</style>
<g id="img_main_logo_axent" transform="translate(-3954 -1517)">
	<g id="logo" transform="translate(4090 1593)">
		<g id="그룹_527" transform="translate(0 0)">
			<path id="패스_94" class="st0" d="M8.5,7.2l2.2,5.6H6.3L8.5,7.2z M7.7,0L0,19.5h3.6L5,16.1h7.1l1.3,3.4h3.6L9.3,0L7.7,0z"/>
			<path id="패스_95" class="st0" d="M41.2,0v19.5H54v-3.4h-9.4v-4.7h7.3V8h-7.3V3.4H54V0L41.2,0z"/>
			<path id="패스_96" class="st0" d="M74.5,0v3.4h5.1v16.1h3.4V3.4H88V0L74.5,0z"/>
			<path id="패스_97" class="st0" d="M68.2,0v12.4L58.5,0h-1.6v19.5h3.4V8.1L70,20.6h1.6V0H68.2z"/>
			<g id="그룹_526" transform="translate(18.985 0.06)">
				<path id="패스_98" class="st0" d="M19.4,19.4l-0.2-0.3l-6.1-9.6L19.4,0h-4.1l-4.7,7.4c-0.1,0.1-0.2,0.3-0.2,0.4l0,0H9.4l0-0.1
					C9.2,7.6,9.2,7.5,9.1,7.5L4.3,0H0l6.6,9.6l-6.4,9.6L0,19.4h4.4l0.2-0.3l4.6-7.6c0-0.1,0.2-0.2,0.3-0.4l0-0.1h0.9l0,0.1
					c0.2,0.3,0.3,0.4,0.3,0.4l4.5,7.5l0.2,0.3L19.4,19.4z"/>
				<path id="패스_99" class="st0" d="M2.5,25.4l-0.6,0.5c-0.1-0.2-0.4-0.4-0.6-0.4c-0.1,0-0.2,0-0.2,0.1c-0.1,0-0.1,0.1-0.1,0.2
					c0,0.1,0,0.1,0.1,0.2c0.2,0.2,0.4,0.3,0.6,0.5c0.3,0.2,0.5,0.4,0.5,0.4c0.1,0.1,0.2,0.3,0.3,0.4c0.1,0.1,0.1,0.3,0.1,0.4
					c0,0.3-0.1,0.6-0.3,0.7c-0.3,0.2-0.6,0.3-0.9,0.3c-0.3,0-0.5-0.1-0.8-0.2c-0.2-0.1-0.4-0.4-0.5-0.6l0.6-0.4
					c0.1,0.3,0.4,0.5,0.7,0.5c0.1,0,0.2,0,0.3-0.1c0.1-0.1,0.1-0.1,0.1-0.2c0-0.1,0-0.2-0.1-0.2c-0.1-0.1-0.3-0.3-0.5-0.4
					c-0.3-0.2-0.6-0.5-0.9-0.8c-0.1-0.2-0.2-0.3-0.2-0.5c0-0.3,0.1-0.5,0.3-0.7c0.2-0.2,0.5-0.3,0.8-0.3c0.2,0,0.4,0,0.6,0.1
					C2.1,25,2.3,25.2,2.5,25.4"/>
			</g>
		</g>
		<path id="패스_100" class="st0" d="M27.2,24.9l-0.5,2.3L26,24.9h-0.6l-0.7,2.3l-0.5-2.3h-0.7l0.8,3.7H25l0.7-2.4l0.7,2.4H27
			l0.8-3.7H27.2z"/>
		<rect id="사각형_413" x="30.1" y="24.9" class="st0" width="0.7" height="3.7"/>
		<path id="패스_101" class="st0" d="M33.2,24.9v0.7h0.9v3h0.7v-3h1v-0.7H33.2z"/>
		<path id="패스_102" class="st0" d="M38.2,24.9v0.7h1.5l-1.6,3h2.7v-0.7h-1.6l1.6-3H38.2z"/>
		<path id="패스_103" class="st0" d="M43.3,24.9v3.7h2.3v-0.7h-1.6v-0.8h1.3v-0.7h-1.3v-0.8h1.6v-0.7L43.3,24.9z"/>
		<path id="패스_104" class="st0" d="M53.2,24.9v3.7h2.3v-0.7h-1.6v-3L53.2,24.9z"/>
		<path id="패스_105" class="st0" d="M59.4,25.9l0.5,1.3h-1L59.4,25.9z M59,24.9l-1.4,3.7h0.7l0.3-0.8h1.5l0.3,0.8h0.7l-1.4-3.7
			H59z"/>
		<path id="패스_106" class="st0" d="M65.6,24.9v2.4l-1.6-2.4h-0.7v3.7h0.7v-2.4l1.6,2.4h0.7v-3.7H65.6z"/>
		<g id="그룹_528" transform="translate(48.231 24.918)">
			<path id="패스_107" class="st0" d="M21.2,0.7V3h0.3c0.2,0,0.5,0,0.7-0.1c0.2-0.1,0.3-0.2,0.4-0.4c0.1-0.2,0.1-0.4,0.1-0.6
				c0-0.3-0.1-0.7-0.3-0.9c-0.3-0.2-0.6-0.3-0.9-0.3L21.2,0.7z M20.5,0h0.8c0.4,0,0.8,0,1.2,0.2c0.3,0.1,0.5,0.4,0.6,0.6
				c0.2,0.3,0.3,0.7,0.3,1c0,0.3,0,0.5-0.1,0.8c-0.1,0.2-0.2,0.4-0.4,0.6c-0.2,0.1-0.3,0.3-0.5,0.3c-0.3,0.1-0.7,0.1-1,0.1h-0.8V0z"
				/>
			<path id="패스_108" class="st0" d="M1.3,1.4H0.7V0.7h0.6c0.2,0,0.4,0.1,0.4,0.4S1.6,1.4,1.3,1.4C1.4,1.4,1.3,1.4,1.3,1.4
				 M1.7,2c0.2-0.1,0.4-0.2,0.5-0.3c0.1-0.2,0.2-0.4,0.2-0.6c0-0.2-0.1-0.4-0.2-0.6C2.1,0.3,2,0.2,1.8,0.1C1.5,0,1.3,0,1,0H0v3.7
				h0.7V2.1H1l0.8,1.5h0.8L1.7,2z"/>
		</g>
	</g>
</g>
</svg>
