<?xml version="1.0" encoding="utf-8"?>
<!-- Generator: Adobe Illustrator 26.5.2, SVG Export Plug-In . SVG Version: 6.00 Build 0)  -->
<svg version="1.1" id="레이어_1" xmlns="http://www.w3.org/2000/svg" xmlns:xlink="http://www.w3.org/1999/xlink" x="0px"
	 y="0px" viewBox="0 0 360 180" style="enable-background:new 0 0 360 180;" xml:space="preserve">
<style type="text/css">
	.st0{fill:#FFFFFF;}
</style>
<g id="img_main_logo_duravit" transform="translate(-3757 -1517)">
	<g id="logo" transform="translate(3872 1592)">
		<path id="패스_143" class="st0" d="M87.1,18.8h4.3l-2.1-5.2L87.1,18.8 M74.2,15.3H77c1.8,0,2.1-1.4,2.1-2.7
			c0-1.3-0.6-2.4-2.1-2.4h-2.8L74.2,15.3z M89.4,4.9l8.1,20.7h-3.5l-1.4-3.5h-7.1l-1.5,3.5h-5.4l-4.6-6.9v6.9h-3.4V6.8l6.3,0
			c3.1,0,5.5,2.5,5.5,5.6c0,0.1,0,0.2,0,0.2c0.2,2.9-1.8,5.4-4.6,6c1.1,1.6,2.3,3.3,3.5,5l8-18.6L89.4,4.9z"/>
		<path id="패스_144" class="st0" d="M14.6,25.2l1.6-2.1l-3.1-3.5L14.6,25.2 M18.4,25.6l-4.9,5.2L9.4,15.5L0,5.1l13.5,1.4
			l10.1,6.9l4.3,6.7L12.4,9.5l-5-0.6l14.3,15.6l1.2-3.8c1.7,1.8,4.3,2.4,6.6,1.7c2.2-0.8,3.8-2.6,4.3-4.8c0.5-2.4-0.4-4.8-2.3-6.4
			c-1.4-1.3-3.4-1.8-5.2-1.4c-1.4,0.3-2.6,1.1-3.6,2.1l-3-2c2.6-3.2,6.8-4.6,10.7-3.4c3.7,1.2,6.4,4.5,7,8.4
			c0.4,4.6-1.6,8.6-5.9,10.5c-2.1,1.1-4.6,1.2-6.9,0.5l-1.7,5L18.4,25.6z"/>
		<path id="패스_145" class="st0" d="M11,11.3c0-0.5,0.4-0.9,1-0.9c0.5,0,0.9,0.4,0.9,1c0,0.5-0.4,0.9-0.9,0.9
			C11.4,12.3,11,11.8,11,11.3C11,11.3,11,11.3,11,11.3"/>
		<path id="패스_146" class="st0" d="M101.7,28L90.4,0H94l7.7,19.2l5.1-12.4h3.6L101.7,28"/>
		<rect id="사각형_414" x="112.1" y="6.8" class="st0" width="3.4" height="18.9"/>
		<path id="패스_147" class="st0" d="M130,10.2h-4.7v15.5h-3.4V10.2h-4.7V6.8H130L130,10.2"/>
		<path id="패스_148" class="st0" d="M58.5,15.8c0,3-0.4,6.4,3.3,6.4c3.6,0,3.2-3.4,3.2-6.4v-9h3.4v12c0,2.5-1.8,6.9-6.6,6.9
			c-4.8,0-6.7-4.4-6.7-6.9v-12h3.4L58.5,15.8"/>
		<path id="패스_149" class="st0" d="M42.9,6.8h-3.4v18.9h3.1c5.4,0,10.7-2.9,10.7-9.5C53.3,10.6,49.8,6.8,42.9,6.8 M45.1,22.2
			c-0.7,0.1-1.4,0.1-2.1,0.1V10.2c0.7,0,1.4,0,2.1,0.1c2.9,0.5,5.1,3.1,4.9,6.1C50.1,19.3,48,21.8,45.1,22.2L45.1,22.2z"/>
	</g>
</g>
</svg>
