<?xml version="1.0" encoding="utf-8"?>
<!-- Generator: Adobe Illustrator 26.5.2, SVG Export Plug-In . SVG Version: 6.00 Build 0)  -->
<svg version="1.1" id="레이어_1" xmlns="http://www.w3.org/2000/svg" xmlns:xlink="http://www.w3.org/1999/xlink" x="0px"
	 y="0px" viewBox="0 0 360 180" style="enable-background:new 0 0 360 180;" xml:space="preserve">
<style type="text/css">
	.st0{clip-path:url(#SVGID_00000094588076157823902090000015322228363032360874_);}
	.st1{fill:#FFFFFF;}
	.st2{clip-path:url(#SVGID_00000061470121189715137300000009409402820528662146_);}
	.st3{clip-path:url(#SVGID_00000026149618714245911220000007586040330927779457_);}
	.st4{clip-path:url(#SVGID_00000173162256685362217590000014765185142297034400_);}
	.st5{clip-path:url(#SVGID_00000049209191406069953310000003780996670984392596_);}
</style>
<g id="img_main_logo_fd" transform="translate(-3556 -1705)">
	<g id="logo" transform="translate(3706 1753)">
		<g id="그룹_541" transform="translate(0 0)">
			<g>
				<defs>
					<rect id="SVGID_1_" width="60" height="65"/>
				</defs>
				<clipPath id="SVGID_00000123405472951360818130000007119685269001170305_">
					<use xlink:href="#SVGID_1_"  style="overflow:visible;"/>
				</clipPath>
				<g id="그룹_540" style="clip-path:url(#SVGID_00000123405472951360818130000007119685269001170305_);">
					<path id="패스_150" class="st1" d="M3.7,57.2c0.5,0.3,0.8,0.8,0.8,1.3v0.1c0,0.7-0.4,1.4-1,1.8l-0.8,0.3l-0.8-0.1l-1.6,2.9
						L0,63.6l0.4-1.1c0.7-0.8,1.3-1.8,1.8-2.8l0.2-0.1l0.1,0.2l-0.4,0.6l0.4,0.1c0.8-0.2,1.5-0.8,1.7-1.6c0-0.1,0-0.2,0-0.3
						c0-0.5-0.3-1-0.7-1.3L3,57.6c-1.1,1.3-1.9,2.8-2.3,4.4l-0.1,0c0.4-1.6,1.1-3.1,2.1-4.4l0.3-0.3l0.3-0.1L3.7,57.2z"/>
					<path id="패스_151" class="st1" d="M6.4,60.5l-0.1,0.7L5.6,62l0.2,0.3l0.5,0.3l0,0.2c-0.5,0-0.9-0.3-1-0.8l0.1-0.2L6,61.1
						l0.1-0.3L5.8,61l0,0.2c-0.5,0.6-1.1,1.1-1.7,1.5l-0.2,0l0.1-0.3l2.3-2.1L6.4,60.5z"/>
					<path id="패스_152" class="st1" d="M8,61.3l-0.7,0.4v0l0.7-0.2l0.6-0.3l-0.2-0.1L8,61.3z M8.7,60.8l0.2,0.2v0.2
						c-0.5,0.5-1.2,0.8-1.9,0.9l0.1,0.3l0.3,0.1l1.3-0.2v0.2L8,62.8H7.4L7,62.7L6.6,62l0.1-0.2h0.2c0.3-0.6,0.9-1,1.5-1L8.7,60.8z"
						/>
					<path id="패스_153" class="st1" d="M10.7,60.5l0.2,0.2l0,0.2l-0.5,0c-0.6,0.2-1.1,0.7-1.1,1.4l0.4,0.3l1.3,0v0.1l-0.2,0.1
						L10,62.8c0,0-0.1,0-0.1,0s-0.1,0-0.1,0c-0.4,0-0.8-0.3-0.9-0.7v-0.1c0-0.6,0.3-1.1,0.8-1.3l0.6-0.3L10.7,60.5z"/>
				</g>
			</g>
		</g>
		<path id="패스_154" class="st1" d="M12.4,59.7l0.3,0.3l-0.1,0.2l-0.2,0l-0.2-0.2l0.1-0.2L12.4,59.7z M11.9,61.4l-0.1,0.2
			l-0.5,0.5l-0.3,0.7l-0.2-0.1l0.2-0.7l0.6-0.6L11.9,61.4z"/>
		<g id="그룹_543" transform="translate(0 0)">
			<g>
				<defs>
					<rect id="SVGID_00000065776277493649752350000016270306278970233219_" width="60" height="65"/>
				</defs>
				<clipPath id="SVGID_00000164483892390224669590000001907327310823985332_">
					<use xlink:href="#SVGID_00000065776277493649752350000016270306278970233219_"  style="overflow:visible;"/>
				</clipPath>
				<g id="그룹_542" style="clip-path:url(#SVGID_00000164483892390224669590000001907327310823985332_);">
					<path id="패스_155" class="st1" d="M13.1,61.6l-0.7,0.8l0.1,0.2c0.5,0,1-0.3,1.3-0.8l0-0.3l-0.3,0L13.1,61.6z M13.8,61.2
						l0.2,0.4c0,0.5-0.3,0.9-0.7,1.1l-0.5,0.2h-0.4l-0.2-0.2v0c0-0.7,0.5-1.4,1.2-1.5L13.8,61.2z"/>
					<path id="패스_156" class="st1" d="M14.9,61.1v0.2l-0.4,0.6l0,0.2c0.6,0,1.1-0.2,1.4-0.7l0.2,0.1v0.2l-0.5,0.6l-0.1,0.6
						l-0.3-0.1l0.1-0.6l-0.9,0.2l-0.3,0l-0.1-0.1c0-0.5,0.2-0.9,0.7-1.1L14.9,61.1z"/>
					<path id="패스_157" class="st1" d="M17.7,60.7l0.2,0.1l0,0.1l-0.5,0l-0.6,0.2l0.3,0.4l0.4,0.2l0.2,0.2l0,0.4
						c-0.4,0.3-0.9,0.5-1.4,0.6l-0.2-0.1l0.1-0.3h0.5l0.7-0.4L17.3,62l-0.6-0.4l-0.2-0.3l0-0.3l0.8-0.3L17.7,60.7z"/>
					<path id="패스_158" class="st1" d="M22.9,59.2c-0.1,1.2-0.6,2.3-1.3,3.2l0.2,0.1l1.3-0.4l0.5,0.1l-0.2,0.2
						c-0.1,0-0.1,0-0.2,0s-0.1,0-0.2,0c-0.6,0-1.1,0.2-1.6,0.5l-0.2,0.5l-0.2-0.1l0-0.3l-0.9,0.2L20,63.1l0.1-0.2
						c0.4,0,0.9-0.1,1.3-0.4c0.6-1,1.1-2.2,1.3-3.4l0.1-0.1L22.9,59.2z"/>
					<path id="패스_159" class="st1" d="M24.8,58.3l0.2,0.2l-0.2,0.3l-0.3-0.1c-1.4,0.3-2.7,1-3.9,1.8l-0.2-0.1l0.3-0.3
						c1.2-0.8,2.5-1.3,3.9-1.7L24.8,58.3z"/>
					<path id="패스_160" class="st1" d="M25.6,60.8l1.2,0.2l0,0.1c-0.1,0-0.1,0-0.2,0s-0.1,0-0.2,0c-0.2,0-0.5,0-0.7-0.1
						c-0.3,0.5-0.7,1-1.2,1.4l-0.2,0.3L24,62.8l0-0.3l1.2-1.3l-0.1-0.1H25l-0.4,0.3l-0.2,0l0.1-0.3l0.4-0.2L25.6,60.8z"/>
					<path id="패스_161" class="st1" d="M27.4,61.4l-1,1l0,0.1l0.7-0.3l0.9-0.6l0-0.4l-0.2-0.1L27.4,61.4z M28.2,60.9l0.1,0.3
						l0.2,0.2l0,0.2l-0.5,0.8l0.3,0.1l1.1-0.3l-0.1,0.2l-1,0.4l-0.5-0.1l-0.1-0.1v-0.3h-0.1l-0.9,0.6h-0.3l-0.2-0.2l0.1-0.4
						c0.4-0.6,1-1.2,1.7-1.5L28.2,60.9z"/>
					<path id="패스_162" class="st1" d="M31,60.3l-0.1,0.3l-1.5,1.7l0.1,0.2c0.2,0.1,0.5,0.1,0.7,0.1c0.2,0,0.4,0,0.6-0.1l0.1,0.2
						l-1.2,0.1l-0.5-0.1l-0.1-0.2l0.1-0.4l1.6-1.9L31,60.3z"/>
				</g>
			</g>
		</g>
		<path id="패스_163" class="st1" d="M32.5,59.7l0.3,0.3l-0.1,0.2l-0.2,0l-0.2-0.2l0.1-0.2L32.5,59.7z M32,61.4l-0.1,0.2l-0.5,0.5
			l-0.3,0.7L31,62.7l0.2-0.7l0.6-0.6L32,61.4z"/>
		<g id="그룹_545" transform="translate(0 0)">
			<g>
				<defs>
					<rect id="SVGID_00000098900376058557841160000001386240575125894295_" width="60" height="65"/>
				</defs>
				<clipPath id="SVGID_00000005244196685739088990000002765920994934792602_">
					<use xlink:href="#SVGID_00000098900376058557841160000001386240575125894295_"  style="overflow:visible;"/>
				</clipPath>
				<g id="그룹_544" style="clip-path:url(#SVGID_00000005244196685739088990000002765920994934792602_);">
					<path id="패스_164" class="st1" d="M33.6,61.4l-1,1l0,0.1l0.7-0.3l0.9-0.6l0-0.4L34,61.1L33.6,61.4z M34.4,60.9l0.1,0.3
						l0.2,0.2l0,0.2l-0.5,0.8l0.3,0.1l1.1-0.3l-0.1,0.2l-1,0.4l-0.5-0.1l-0.1-0.1v-0.3h-0.1l-0.9,0.6h-0.3l-0.2-0.2l0.1-0.4
						c0.4-0.6,1-1.2,1.7-1.5L34.4,60.9z"/>
					<path id="패스_165" class="st1" d="M36,61.5l-0.2,0.6l1-0.5h0.2l0.1,0.2v0.4l-0.2,0.3l0,0.4l-0.3-0.1
						c-0.1-0.1-0.1-0.2-0.1-0.3c0-0.2,0.1-0.4,0.3-0.5l-0.1-0.1l-1.3,0.6l-0.3-0.1l0.6-1.1L36,61.5z"/>
				</g>
			</g>
		</g>
		<path id="패스_166" class="st1" d="M26,60.1l-0.2,0.8l-0.3-0.1l0.2-0.8L26,60.1z"/>
		<g id="그룹_547" transform="translate(0 0)">
			<g>
				<defs>
					<rect id="SVGID_00000165917548164320146500000003729900589162634895_" width="60" height="65"/>
				</defs>
				<clipPath id="SVGID_00000130649077395462416740000008254522124372676995_">
					<use xlink:href="#SVGID_00000165917548164320146500000003729900589162634895_"  style="overflow:visible;"/>
				</clipPath>
				<g id="그룹_546" style="clip-path:url(#SVGID_00000130649077395462416740000008254522124372676995_);">
					<path id="패스_167" class="st1" d="M51.4,60.8l-0.8,0.3l0,0.3l0.2,0.3l0.6,0.4l0.2,0.2l-0.7,0.4h-0.5l-0.1,0.3l0.2,0.1
						c0.5,0,1-0.3,1.4-0.6l0-0.4l-0.2-0.2l-0.4-0.2l-0.3-0.4l0.6-0.2l0.5,0l0-0.1l-0.2-0.1L51.4,60.8z M49.9,60.5l-2.3,2.1l-0.1,0.3
						l0.2,0c0.6-0.5,1.2-1,1.7-1.5l0-0.2l0.3-0.2l-0.1,0.3L49,62l-0.1,0.2c0.2,0.4,0.6,0.7,1,0.8l0-0.2l-0.5-0.3l-0.2-0.3l0.7-0.8
						l0.1-0.7L49.9,60.5z M46.9,61.5l0.3,0l0,0.3c-0.3,0.5-0.8,0.7-1.3,0.8l-0.1-0.2l0.7-0.8L46.9,61.5z M46.9,61.2
						c-0.7,0.1-1.3,0.8-1.2,1.5v0l0.2,0.2h0.4l0.5-0.2c0.4-0.2,0.7-0.6,0.7-1.1l-0.2-0.4L46.9,61.2z M45,61.5l0.3,0l0,0.3
						c-0.3,0.5-0.8,0.7-1.3,0.8L44,62.5l0.7-0.8L45,61.5z M45,61.2c-0.7,0.1-1.3,0.8-1.2,1.5v0L44,63h0.4l0.5-0.2
						c0.4-0.2,0.7-0.6,0.7-1.1l-0.2-0.4L45,61.2z M43.6,60.4l-1.6,1.9l-0.1,0.4l0.1,0.2l0.5,0.1l1.2-0.1l-0.1-0.2
						c-0.2,0.1-0.4,0.1-0.6,0.1c-0.2,0-0.5,0-0.7-0.1l-0.1-0.2l1.5-1.7l0.1-0.3L43.6,60.4z M42,60.1l1-0.9l0.5-0.3l0.1,0.1L43,59.6
						L42,60.1L42,60.1z M43.7,58.5c-0.9,0.5-1.7,1.2-2.4,2.1l-1.8,0.8l0,0.2h0.2l0.9-0.4h0.1v0.1L40.1,62c-0.2,0.1-0.4,0.3-0.6,0.5
						c-0.2,0.2-0.3,0.4-0.4,0.6l-0.6,1.2l-0.1,0.5l0.1,0.1c0.2-0.3,0.3-0.6,0.4-0.8c0.1-0.2,0.2-0.4,0.4-0.6
						c0.1-0.2,0.3-0.4,0.4-0.6c0.2-0.2,0.3-0.4,0.6-0.7l0.4,0l0.7,0.3l0.2-0.1l-0.1-0.2L40.6,62l0-0.1l1.1-1.2l1.2-0.6
						c0.6-0.3,1-0.8,1.2-1.5l-0.1-0.1L43.7,58.5z"/>
					<path id="패스_168" class="st1" d="M6.6,30l-1,0c-0.6,0-1.2,0-2.1,0H1.8c0,0.6,0,1.2,0,1.8c0,0.7,0,1.2,0,1.7h1.3
						c0.8,0,1.6,0,2.3,0l1.2,0v1c-0.1,0-0.5,0-1.4,0c-0.8,0-1.5,0-2.2,0H1.8c0,0.9,0,1.7,0,2.5c0,0.8,0,1.4,0,1.9H0.6
						c0-0.3,0-0.8,0-1.6s0-1.8,0-3.3c0-0.6,0-1.3,0-2.2c0-0.9,0-1.8,0-2.8c0.4,0,0.8,0,1.3,0s1.1,0,1.6,0c0.9,0,1.6,0,2.1,0l1,0
						L6.6,30z"/>
					<path id="패스_169" class="st1" d="M17.9,33.9c0,0.7-0.1,1.5-0.4,2.2c-0.2,0.6-0.6,1.2-1.1,1.6c-0.4,0.4-1,0.8-1.5,1.1
						c-0.6,0.2-1.2,0.3-1.8,0.3c-0.6,0-1.2-0.1-1.7-0.3c-0.5-0.2-1-0.5-1.5-0.9c-0.5-0.5-0.9-1.1-1.2-1.7c-0.3-0.7-0.5-1.5-0.4-2.3
						c0-0.7,0.1-1.4,0.3-2.1c0.2-0.6,0.6-1.2,1-1.7c0.4-0.5,0.9-0.8,1.5-1.1c1.2-0.5,2.5-0.5,3.7,0c0.6,0.2,1,0.6,1.5,1
						c0.5,0.5,0.9,1.1,1.1,1.7C17.8,32.5,17.9,33.2,17.9,33.9 M16.7,34c0-0.6-0.1-1.3-0.3-1.9c-0.2-0.6-0.5-1.1-1-1.5
						c-0.3-0.3-0.6-0.5-1-0.7c-0.4-0.2-0.8-0.2-1.2-0.2c-0.4,0-0.8,0.1-1.2,0.2c-0.4,0.2-0.7,0.4-1,0.7c-0.4,0.4-0.7,0.9-0.9,1.5
						c-0.4,1.2-0.4,2.5,0,3.7c0.2,0.5,0.5,1,0.9,1.4c0.3,0.3,0.6,0.5,1,0.7c0.4,0.2,0.8,0.2,1.2,0.2c0.4,0,0.8-0.1,1.2-0.2
						c0.4-0.2,0.7-0.4,1-0.7c0.4-0.4,0.7-0.8,0.9-1.3C16.6,35.3,16.7,34.7,16.7,34"/>
					<path id="패스_170" class="st1" d="M27.9,33.8c0,0.4,0,0.8,0,1.2c0,0.5,0,0.9,0,1.2c0,0.5,0,1.1,0,1.7c0,0.6,0,1,0,1l-0.4,0
						c-0.2,0-0.5,0-0.7,0c-1,0-2.1-0.1-3.1-0.4c-0.9-0.2-1.7-0.7-2.3-1.3c-0.4-0.4-0.8-0.9-1-1.4c-0.3-0.6-0.4-1.3-0.4-1.9
						c0-0.9,0.2-1.7,0.7-2.4c0.5-0.7,1.2-1.3,2-1.7c0.6-0.3,1.3-0.5,1.9-0.7c0.7-0.2,1.5-0.2,2.3-0.2h0.6l0.1,1.1h-0.6
						c-0.7,0-1.4,0.1-2.1,0.2c-0.6,0.1-1.1,0.3-1.6,0.6c-0.6,0.3-1.1,0.8-1.5,1.4c-0.4,0.5-0.5,1.2-0.5,1.8c0,0.7,0.2,1.4,0.6,2
						c0.4,0.5,0.9,1,1.5,1.3c0.5,0.3,1.1,0.5,1.7,0.6c0.6,0.1,1.2,0.2,1.8,0.2c0-0.1,0-0.5,0-1.1c0-0.7,0-1.7,0-3L27.9,33.8z"/>
					<path id="패스_171" class="st1" d="M37,38.8l-0.9,0c-0.6,0-1.3,0-2.2,0c-0.6,0-1.1,0-1.6,0s-1,0-1.3,0c0-0.8,0-1.7,0-2.6
						s0-1.7,0-2.6c0-1.4,0-2.5,0-3.2c0-0.7,0-1.2,0-1.5h1.2c0,0.6,0,1.4,0,2.2c0,0.8,0,1.5,0,2c0,1.3,0,2.4,0,3.2c0,0.9,0,1.3,0,1.4
						h1.5c0.9,0,1.6,0,2.3,0l1,0L37,38.8z"/>
					<path id="패스_172" class="st1" d="M40.3,38.8h-1.2c0-0.3,0-0.8,0-1.6s0-1.8,0-3.3c0-0.6,0-1.3,0-2.2c0-0.9,0-1.8,0-2.8h1.2
						c0,0.7,0,1.5,0,2.4s0,1.7,0,2.3c0,1.5,0,2.6,0,3.5C40.3,38,40.3,38.6,40.3,38.8"/>
					<path id="패스_173" class="st1" d="M50.1,38.8l-1,0c-0.6,0-1.4,0-2.3,0c-0.6,0-1.2,0-1.7,0c-0.5,0-1,0-1.3,0
						c0-0.3,0-0.9,0-1.9s0-1.9,0-2.9c0-0.6,0-1.3,0-2.2c0-0.9,0-1.9,0-2.8c0.4,0,0.8,0,1.3,0s1.1,0,1.6,0c0.9,0,1.7,0,2.3,0l1,0v1
						L49,30c-0.6,0-1.3,0-2.1,0H45c0,0.6,0,1.1,0,1.7c0,0.6,0,1.1,0,1.6h1.6c0.9,0,1.6,0,2.3,0l1.1,0v1l-1.2,0c-0.8,0-1.5,0-2.1,0
						H45c0,0.9,0,1.7,0,2.2c0,0.5,0,1,0,1.4c0.3,0,0.6,0,1.1,0s0.9,0,1.3,0c0.7,0,1.3,0,1.8,0l0.8,0L50.1,38.8z"/>
				</g>
			</g>
		</g>
		<path id="패스_174" class="st1" d="M15.1,43.1l-1.9,3.8l-1-0.4l1.7-3.9L15.1,43.1z"/>
		<g id="그룹_549" transform="translate(0 0)">
			<g>
				<defs>
					<rect id="SVGID_00000050650557682284008200000009943115993285021106_" width="60" height="65"/>
				</defs>
				<clipPath id="SVGID_00000114764867290680707520000001895752032616227740_">
					<use xlink:href="#SVGID_00000050650557682284008200000009943115993285021106_"  style="overflow:visible;"/>
				</clipPath>
				<g id="그룹_548" style="clip-path:url(#SVGID_00000114764867290680707520000001895752032616227740_);">
					<path id="패스_175" class="st1" d="M10.1,49.2c0,0.9-0.2,1.9-0.7,2.6c-0.5,0.8-1.1,1.4-1.9,1.8c-0.7,0.4-1.5,0.7-2.3,0.9
						c-0.9,0.2-1.9,0.3-2.8,0.3c-0.4,0-0.8,0-1.2,0s-0.6,0-0.6,0c0,0,0-0.7,0-2s0-2.5,0-3.7c0-0.6,0-1.4,0-2.4c0-1,0-2.1,0-3.5
						c0.1,0,0.3,0,0.8,0l0.8,0c1.1,0,2.1,0.1,3.1,0.3c0.9,0.2,1.7,0.5,2.5,1C9.2,45.6,10.2,47.3,10.1,49.2 M8.6,49.2
						c0-0.7-0.2-1.4-0.5-2c-0.4-0.6-0.9-1.2-1.5-1.6c-0.7-0.4-1.4-0.7-2.1-0.8c-0.7-0.2-1.4-0.2-2.1-0.2H1.9c0,0.9,0,1.7,0,2.2
						c0,0.6,0,1.1,0,1.4c0,0.3,0,0.8,0,1.8s0,2.2,0,3.8h0.4c0.8,0,1.5-0.1,2.2-0.3c0.7-0.1,1.3-0.4,1.9-0.7c0.6-0.4,1.2-0.9,1.6-1.5
						C8.4,50.7,8.7,49.9,8.6,49.2"/>
					<path id="패스_176" class="st1" d="M27.2,49.1c0,0.9-0.2,1.7-0.5,2.6c-0.3,0.7-0.7,1.4-1.2,1.9c-1,1-2.4,1.6-3.8,1.6
						c-0.7,0-1.4-0.1-2-0.4c-0.6-0.2-1.2-0.6-1.7-1.1c-0.6-0.6-1-1.2-1.3-2c-0.4-0.8-0.5-1.8-0.5-2.7c0-0.8,0.1-1.6,0.4-2.4
						c0.3-0.7,0.7-1.4,1.2-1.9c0.5-0.5,1.1-1,1.8-1.2c1.4-0.6,2.9-0.6,4.3,0c0.6,0.3,1.2,0.7,1.7,1.2c0.6,0.6,1,1.3,1.3,2
						C27,47.4,27.2,48.3,27.2,49.1 M25.7,49.3c0-0.7-0.1-1.5-0.4-2.2c-0.2-0.7-0.6-1.3-1.1-1.8c-0.3-0.3-0.7-0.6-1.2-0.8
						c-0.5-0.2-0.9-0.3-1.4-0.3c-0.5,0-1,0.1-1.4,0.3c-0.4,0.2-0.9,0.5-1.2,0.8c-0.5,0.5-0.8,1.1-1.1,1.7c-0.5,1.4-0.5,2.9,0,4.3
						c0.2,0.6,0.6,1.2,1.1,1.7c0.3,0.3,0.7,0.6,1.2,0.8c0.5,0.2,0.9,0.3,1.4,0.3c0.5,0,1-0.1,1.4-0.3c0.4-0.2,0.9-0.5,1.2-0.8
						c0.5-0.4,0.8-1,1.1-1.6C25.6,50.7,25.7,50,25.7,49.3"/>
					<path id="패스_177" class="st1" d="M39.2,54.2l-1.1,0.9c-0.1-0.1-0.6-0.6-1.3-1.5c-0.8-0.9-2-2.2-3.6-4l0-0.1
						c0.3-0.1,0.6-0.2,0.9-0.4c0.3-0.2,0.6-0.4,0.9-0.6c0.2-0.2,0.4-0.5,0.6-0.7c0.2-0.4,0.3-0.8,0.2-1.1c0-0.4-0.1-0.8-0.3-1.1
						c-0.2-0.3-0.6-0.6-1-0.7c-0.3-0.1-0.7-0.2-1-0.2c-0.4,0-0.7,0-1,0h-0.7c0,1.1,0,2,0,2.9c0,0.8,0,1.4,0,1.8c0,0.8,0,1.8,0,3.2
						c0,1.3,0,2.2,0,2.5h-1.4c0-0.3,0-1,0-2c0-1,0-2.2,0-3.7v-1.6c0-0.8,0-2.2,0-4.2c0.1,0,0.3,0,0.9,0s1,0,1.4,0c0.5,0,1,0,1.4,0.1
						c0.5,0.1,0.9,0.2,1.4,0.4c0.5,0.2,1,0.6,1.3,1.1c0.3,0.5,0.5,1.1,0.5,1.6c0,0.7-0.2,1.5-0.8,2c-0.4,0.5-0.9,0.9-1.4,1.2v0
						c0.8,0.9,1.7,1.9,2.6,2.8L39.2,54.2"/>
					<path id="패스_178" class="st1" d="M51.6,49.1c0,0.9-0.2,1.7-0.5,2.6c-0.3,0.7-0.7,1.4-1.2,1.9c-1,1-2.4,1.6-3.8,1.6
						c-0.7,0-1.4-0.1-2-0.4c-0.6-0.2-1.2-0.6-1.7-1.1c-0.6-0.6-1-1.2-1.3-2c-0.4-0.8-0.5-1.8-0.5-2.7c0-0.8,0.1-1.6,0.4-2.4
						c0.3-0.7,0.7-1.4,1.2-1.9c0.5-0.5,1.1-1,1.8-1.2c1.4-0.6,2.9-0.6,4.3,0c0.6,0.3,1.2,0.7,1.7,1.2c0.6,0.6,1,1.3,1.3,2
						C51.4,47.4,51.6,48.3,51.6,49.1 M50.1,49.3c0-0.7-0.1-1.5-0.4-2.2c-0.2-0.7-0.6-1.3-1.1-1.8c-0.3-0.3-0.7-0.6-1.2-0.8
						c-0.5-0.2-0.9-0.3-1.4-0.3c-0.5,0-1,0.1-1.4,0.3c-0.4,0.2-0.9,0.5-1.2,0.8c-0.5,0.5-0.8,1.1-1.1,1.7c-0.5,1.4-0.5,2.9,0,4.3
						c0.2,0.6,0.6,1.2,1.1,1.7c0.3,0.3,0.7,0.6,1.2,0.8C45,53.9,45.5,54,46,54c0.5,0,1-0.1,1.4-0.3c0.4-0.2,0.9-0.5,1.2-0.8
						c0.5-0.4,0.8-1,1.1-1.6C50,50.7,50.1,50,50.1,49.3"/>
					<path id="패스_179" class="st1" d="M42.1,24.8c0,1.3-1.1,2.4-2.4,2.4c-1.3,0-2.4-1.1-2.4-2.4c0-1.3,1.1-2.4,2.4-2.4
						c0,0,0,0,0,0C41.1,22.5,42.1,23.5,42.1,24.8C42.1,24.8,42.1,24.8,42.1,24.8"/>
					<path id="패스_180" class="st1" d="M46.5,21.1c0,0,2.9-2.6,5.4-2.6c1.4,0,2.9,0.3,4.1,1c1.3,0.5,2.6,0.9,4,1.3
						c-2.2,1.6-4.8,2.5-7.5,2.5C47.7,23.3,46.2,21.1,46.5,21.1"/>
					<path id="패스_181" class="st1" d="M37.8,19.2c0,0-1.7-5.8,0-9.3c0.9-2,2.3-3.8,4.1-5.1C43.5,3.2,45,1.7,46.4,0
						c0-0.3,1.4,5.3-1.4,12.2C41.7,18.9,37.7,19.5,37.8,19.2"/>
				</g>
			</g>
		</g>
		<rect id="사각형_420" x="39" y="47.3" class="st1" width="14.3" height="3.3"/>
		<g id="그룹_550" transform="translate(39.344 47.831)">
			<path id="패스_182" class="st1" d="M1.7,1.7c0,0.1,0,0.2-0.1,0.3C1.5,2.2,1.4,2.2,1.3,2.3C1.2,2.3,1.1,2.4,1,2.4
				c-0.1,0-0.3,0-0.4,0c-0.1,0-0.2,0-0.4,0L0,2.4C0,2.2,0,2,0,1.8c0-0.2,0-0.4,0-0.6c0-0.3,0-0.6,0-0.8s0-0.3,0-0.3l0.2,0
				c0.1,0,0.2,0,0.3,0c0.1,0,0.2,0,0.3,0c0.1,0,0.2,0,0.3,0.1c0.1,0,0.2,0.1,0.3,0.2c0.1,0.1,0.1,0.2,0.1,0.3c0,0.1,0,0.2-0.1,0.3
				C1.3,1,1.2,1.1,1.1,1.1v0c0.1,0,0.2,0,0.2,0.1c0.1,0,0.1,0.1,0.2,0.1c0,0,0.1,0.1,0.1,0.2C1.7,1.6,1.7,1.7,1.7,1.7z M1.4,1.7
				c0-0.1,0-0.1,0-0.2c0-0.1-0.1-0.1-0.1-0.1c0,0-0.1-0.1-0.2-0.1c-0.1,0-0.2,0-0.2,0H0.7H0.6l0-0.2c0.1,0,0.2,0,0.2,0
				C0.9,1.1,0.9,1,1,1c0,0,0.1-0.1,0.1-0.1c0-0.1,0-0.1,0-0.2c0-0.1,0-0.1-0.1-0.2C1.1,0.4,1,0.4,1,0.4c-0.1,0-0.1,0-0.2-0.1
				c-0.1,0-0.2,0-0.2,0c-0.1,0-0.1,0-0.2,0H0.3c0,0.2,0,0.4,0,0.5c0,0.2,0,0.3,0,0.4c0,0.2,0,0.4,0,0.6s0,0.3,0,0.3h0.1
				c0,0,0.1,0,0.1,0c0.1,0,0.3,0,0.4,0c0.1,0,0.2,0,0.3-0.1C1.2,2,1.3,2,1.3,1.9C1.4,1.9,1.4,1.8,1.4,1.7L1.4,1.7z"/>
			<path id="패스_183" class="st1" d="M4.1,2.3L3.9,2.5c0,0-0.1-0.1-0.3-0.3S3.2,1.7,2.9,1.3v0c0.1,0,0.1,0,0.2-0.1
				c0.1,0,0.1-0.1,0.2-0.1c0,0,0.1-0.1,0.1-0.1c0-0.1,0.1-0.2,0-0.2c0-0.1,0-0.2-0.1-0.2C3.3,0.4,3.3,0.4,3.2,0.3
				c-0.1,0-0.1,0-0.2,0c-0.1,0-0.1,0-0.2,0H2.6c0,0.2,0,0.4,0,0.6s0,0.3,0,0.4c0,0.2,0,0.4,0,0.7s0,0.5,0,0.5H2.3c0-0.1,0-0.2,0-0.4
				c0-0.2,0-0.5,0-0.8V0.9c0-0.2,0-0.4,0-0.9h0.2c0.1,0,0.2,0,0.3,0c0.1,0,0.2,0,0.3,0c0.1,0,0.2,0,0.3,0.1c0.1,0,0.2,0.1,0.3,0.2
				c0.1,0.1,0.1,0.2,0.1,0.3c0,0.2-0.1,0.3-0.2,0.4C3.5,1.2,3.4,1.3,3.3,1.4v0C3.4,1.6,3.6,1.8,3.8,2L4.1,2.3z"/>
			<path id="패스_184" class="st1" d="M6.7,1.3c0,0.2,0,0.4-0.1,0.5C6.6,1.9,6.5,2.1,6.4,2.2C6.1,2.4,5.9,2.5,5.6,2.5
				c-0.1,0-0.3,0-0.4-0.1C5,2.4,4.9,2.3,4.8,2.2C4.7,2.1,4.6,2,4.5,1.8C4.4,1.6,4.4,1.4,4.4,1.3c0-0.2,0-0.3,0.1-0.5
				c0.1-0.1,0.1-0.3,0.2-0.4C4.8,0.2,5,0.2,5.1,0.1C5.4,0,5.7,0,6,0.1c0.1,0.1,0.3,0.1,0.4,0.2c0.1,0.1,0.2,0.3,0.3,0.4
				C6.7,0.9,6.7,1.1,6.7,1.3z M6.4,1.3c0-0.2,0-0.3-0.1-0.5c0-0.1-0.1-0.3-0.2-0.4C6,0.4,5.9,0.3,5.9,0.3c-0.1,0-0.2-0.1-0.3-0.1
				c-0.1,0-0.2,0-0.3,0.1C5.2,0.3,5.1,0.4,5,0.5C4.9,0.6,4.8,0.7,4.8,0.8C4.7,1,4.7,1.1,4.7,1.3c0,0.2,0,0.3,0.1,0.5
				C4.8,1.8,4.9,2,5,2.1c0.1,0.1,0.2,0.1,0.2,0.2c0.2,0.1,0.4,0.1,0.6,0C5.9,2.2,6,2.1,6.1,2c0.1-0.1,0.2-0.2,0.2-0.3
				C6.4,1.6,6.4,1.4,6.4,1.3L6.4,1.3z"/>
			<path id="패스_185" class="st1" d="M9,0.3H8.7H8.1c0,0.2,0,0.4,0,0.6s0,0.3,0,0.5s0,0.4,0,0.6s0,0.4,0,0.4H7.8
				c0-0.1,0-0.2,0-0.4s0-0.4,0-0.6V0.9c0-0.1,0-0.3,0-0.6c-0.3,0-0.5,0-0.6,0H7V0.1h0.4H8h0.7H9L9,0.3z"/>
			<path id="패스_186" class="st1" d="M11.1,0.3h-0.2h-0.6c0,0.2,0,0.4,0,0.6s0,0.3,0,0.5s0,0.4,0,0.6s0,0.4,0,0.4H9.9
				c0-0.1,0-0.2,0-0.4s0-0.4,0-0.6V0.9c0-0.1,0-0.3,0-0.6c-0.3,0-0.5,0-0.6,0H9V0.1h0.4H10h0.7H11L11.1,0.3z"/>
			<path id="패스_187" class="st1" d="M13.6,1.3c0,0.2,0,0.4-0.1,0.5c-0.1,0.1-0.1,0.3-0.3,0.4c-0.2,0.2-0.5,0.3-0.8,0.3
				c-0.1,0-0.3,0-0.4-0.1c-0.1-0.1-0.2-0.1-0.4-0.2c-0.1-0.1-0.2-0.3-0.3-0.4c-0.1-0.2-0.1-0.4-0.1-0.6c0-0.2,0-0.3,0.1-0.5
				c0.1-0.1,0.1-0.3,0.2-0.4c0.1-0.1,0.2-0.2,0.4-0.3c0.3-0.1,0.6-0.1,0.9,0c0.1,0.1,0.3,0.1,0.4,0.2c0.1,0.1,0.2,0.3,0.3,0.4
				C13.5,0.9,13.6,1.1,13.6,1.3z M13.3,1.3c0-0.2,0-0.3-0.1-0.5c0-0.1-0.1-0.3-0.2-0.4c-0.1-0.1-0.2-0.1-0.2-0.2
				c-0.1,0-0.2-0.1-0.3-0.1c-0.1,0-0.2,0-0.3,0.1c-0.1,0-0.2,0.1-0.2,0.2c-0.1,0.1-0.2,0.2-0.2,0.4c-0.1,0.3-0.1,0.6,0,0.9
				c0,0.1,0.1,0.2,0.2,0.3C12,2.1,12,2.2,12.1,2.2c0.2,0.1,0.4,0.1,0.6,0c0.1,0,0.2-0.1,0.2-0.2c0.1-0.1,0.2-0.2,0.2-0.3
				C13.2,1.6,13.3,1.4,13.3,1.3L13.3,1.3z"/>
		</g>
	</g>
</g>
</svg>
