<?xml version="1.0" encoding="utf-8"?>
<!-- Generator: Adobe Illustrator 26.5.2, SVG Export Plug-In . SVG Version: 6.00 Build 0)  -->
<svg version="1.1" id="레이어_1" xmlns="http://www.w3.org/2000/svg" xmlns:xlink="http://www.w3.org/1999/xlink" x="0px"
	 y="0px" viewBox="0 0 360 180" style="enable-background:new 0 0 360 180;" xml:space="preserve">
<style type="text/css">
	.st0{fill:#FFFFFF;}
</style>
<g id="img_main_logo_fontana" transform="translate(-3381 -1615)">
	<g id="logo" transform="translate(3496 1687)">
		<g id="그룹_394" transform="translate(0 0.252)">
			<path id="패스_77" class="st0" d="M0,19l0-0.7h2.3V0.7H0L0,0h13.9l0.2,5h-0.5c-0.9-3.4-1.4-4.4-4.9-4.4H5.1v8.3
				C7.6,8.9,8.7,8.8,9,6h0.7v7H9c-0.2-2.9-1.3-3.3-4-3.3v8.7h2.4V19L0,19z"/>
			<path id="패스_78" class="st0" d="M14.8,13.4c0,2.4,0,5.4,2.9,5.4c2.9,0,2.9-3,2.9-5.4c0-2.4,0-5.4-2.9-5.4S14.8,11,14.8,13.4
				 M23.2,13.4c-0.2,3-2.9,5.3-5.9,5c-3-0.2-5.3-2.9-5-5.9c0.2-2.9,2.6-5.1,5.5-5.1C20.8,7.5,23.3,10.1,23.2,13.4
				C23.2,13.3,23.2,13.3,23.2,13.4"/>
			<path id="패스_79" class="st0" d="M25.7,8.4h-1.6V7.7h0.6c0.5,0,1.1,0,1.6-0.1c0.5,0,1.1-0.1,1.6-0.2v3h0.1c0.8-1.8,1.9-3,4-3
				c1,0,3.4,0.2,3.4,2.8v8h1.5V19h-5.2v-0.7h1.5v-7.7c0-2.1-0.7-2.4-1.8-2.4c-1.9,0-3.4,2.6-3.4,4.8v5.3h1.5l0,0.7h-5.3v-0.7h1.6
				L25.7,8.4z"/>
			<path id="패스_80" class="st0" d="M37.1,7.7h1.7V4.2c0.7,0,1.4,0,2.2-0.1v3.6h2.5v0.7H41V17c0,0.5,0,1.3,1.1,1.3
				c0.7,0,1.1-0.5,1.6-1l0.5,0.3c-0.6,1.1-1.8,1.7-3.1,1.7c-2,0-2.3-1.1-2.3-2.5V8.4h-1.6V7.7z"/>
			<path id="패스_81" class="st0" d="M52.3,13c-1.8,0-5,0.3-5,2.9c-0.1,1.1,0.7,2.1,1.9,2.2c0.1,0,0.2,0,0.3,0
				c0.8,0,1.6-0.3,2.2-0.8c0.5-0.4,0.7-1.1,0.6-1.7L52.3,13z M56.5,17c0,1.3-1.1,2.3-2.4,2.3c-1,0-1.8-0.8-1.8-1.7
				c-0.9,1.1-2.4,1.8-3.8,1.7c-1.8,0-3.3-0.7-3.3-2.8c0.1-2.6,2.8-4.1,7.1-4.1V9.7c0-1.3-1-1.7-2-1.7c-0.6,0-2.6,0.2-2.6,1
				c0,0.2,0.8,0.4,0.8,1.3c0,0.6-0.4,1.1-1,1.2c0,0-0.1,0-0.1,0c-0.7,0-1.2-0.5-1.2-1.2c0-0.1,0-0.1,0-0.2c0-1,1.2-2.7,4.5-2.7
				c3.9,0,3.9,1.6,3.9,2.8V17c0,0.9,0,1.3,0.6,1.3c0.6,0,0.9-0.8,1-1.3L56.5,17z"/>
			<path id="패스_82" class="st0" d="M59,8.4h-1.6V7.7h0.6c0.5,0,1.1,0,1.6-0.1c0.5,0,1.1-0.1,1.6-0.2v3h0.1c0.8-1.8,1.9-3,4-3
				c1,0,3.4,0.2,3.4,2.8v8h1.5V19H65v-0.7h1.5v-7.7c0-2.1-0.7-2.4-1.8-2.4c-1.9,0-3.4,2.6-3.4,4.8v5.3h1.5V19h-5.3v-0.7H59L59,8.4z"
				/>
			<path id="패스_83" class="st0" d="M78.3,13c-1.8,0-5,0.3-5,2.9c-0.1,1.1,0.8,2.1,1.9,2.2c0.1,0,0.2,0,0.3,0
				c0.8,0,1.6-0.3,2.2-0.8c0.5-0.4,0.7-1.1,0.6-1.7V13z M82.6,17c0,1.3-1.1,2.3-2.4,2.3c-1,0-1.8-0.8-1.8-1.7
				c-0.9,1.1-2.4,1.8-3.8,1.7c-1.8,0-3.3-0.7-3.3-2.8c0.1-2.6,2.8-4.1,7.1-4.1V9.7c0-1.3-1.1-1.7-2-1.7c-0.6,0-2.6,0.2-2.6,1
				c0,0.2,0.9,0.4,0.9,1.3c0,0.6-0.4,1.1-1,1.2c0,0-0.1,0-0.1,0c-0.8,0-1.2-0.6-1.2-1.4c0-1,1.2-2.7,4.5-2.7c3.9,0,3.9,1.6,3.9,2.8
				l0,6.8c0,0.9,0,1.3,0.6,1.3c0.6,0,0.8-0.8,1-1.3L82.6,17z"/>
		</g>
		<path id="패스_84" class="st0" d="M93.7,11.5l-2.3-7.7h-0.1l-2.5,7.7H93.7z M83.5,19.2v-0.7l2.2,0L91.9,0H93l5.8,18.6l2,0v0.7
			h-7.2v-0.7H96l-2-6.2h-5.4l-2,6.2l2.4,0v0.6L83.5,19.2z"/>
		<g id="그룹_395" transform="translate(0 4.363)">
			<path id="패스_85" class="st0" d="M105.7,6L105.7,6c0.6-1.3,1.7-2.7,3.3-2.7c0.8-0.1,1.6,0.5,1.7,1.3c0,0.1,0,0.2,0,0.2
				c0,0.7-0.7,1.1-1.3,1.1c-0.6-0.1-1.1-0.5-1.1-1.1c0-0.2,0.1-0.4,0.1-0.6c0-0.2-0.2-0.2-0.3-0.2c-0.7,0.3-1.3,0.9-1.6,1.7
				c-0.5,1-0.7,2-0.7,3.1v5.4h2.2v0.7h-6.3v-0.7h1.9V4.3h-1.9V3.6h0.9c1.1,0,2.1-0.1,3.2-0.3L105.7,6z"/>
			<path id="패스_86" class="st0" d="M111.5,3.6h1.7V0.1c0.7,0,1.4,0,2.2-0.1v3.6h2.5v0.7l-2.5,0v8.7c0,0.5,0,1.3,1.1,1.3
				c0.7,0,1.1-0.5,1.6-1l0.5,0.3c-0.6,1.1-1.8,1.7-3.1,1.7c-2,0-2.3-1.1-2.3-2.5V4.3l-1.6,0V3.6z"/>
			<path id="패스_87" class="st0" d="M127.4,7.5v-1c0.2-1.3-0.7-2.5-2-2.7c-0.2,0-0.4,0-0.6,0c-1.1,0.1-2.1,0.8-2.5,1.8
				c-0.2,0.6-0.3,1.2-0.3,1.9L127.4,7.5z M130,11.3c-0.4,2.4-2.6,4.1-5,3.9c-3.1,0-5.6-2.4-5.7-5.5c0-3.3,2.2-6.4,5.6-6.4
				c2.7-0.1,5,1.9,5.1,4.6c0,0.1,0,0.3,0,0.4h-8v1.2c0,2.8,0.4,5.1,3.5,5.1c1.9-0.1,3.5-1.5,3.9-3.3H130z"/>
			<path id="패스_88" class="st0" d="M55.3,27.8h-0.2L55,28.9h-3.5c1.6-1.9,3.6-2.4,3.6-4.1c0-1.1-0.9-2-1.9-2c-0.1,0-0.1,0-0.2,0
				c-1.1,0-2,0.5-2,1.8c0,0.4,0.2,0.8,0.6,0.8c0.3,0,0.5-0.2,0.5-0.4c0,0,0-0.1,0-0.1c0-0.3-0.2-0.4-0.5-0.4c-0.2,0-0.3,0-0.3-0.3
				c0.1-0.7,0.7-1.3,1.5-1.2c1,0,1.4,0.8,1.4,1.7c0,2.5-2.7,3.2-3.4,5h4.3L55.3,27.8z M46,25.9h1.1c1.3,0,1.6,1.1,1.6,1.8
				c0,1.2-0.4,1.9-1.8,1.9c-0.5,0-1.4-0.3-1.4-0.8c0,0,0-0.1,0.1-0.1c0,0,0,0,0,0c0.1,0,0.1,0,0.2,0c0.3,0,0.5-0.2,0.5-0.5
				c0,0,0,0,0,0c0-0.3-0.2-0.5-0.4-0.5c0,0-0.1,0-0.1,0c-0.3,0-0.6,0.3-0.6,0.6c0,1.1,1,1.4,1.9,1.4c1.1,0,2.6-0.7,2.6-2
				c0-1.1-0.9-1.9-2-1.9v0c0.6-0.1,1.7-0.4,1.7-1.6c0-1-1-1.5-2-1.5c-0.8,0-1.7,0.4-1.7,1.2c0,0.3,0.2,0.5,0.5,0.5c0,0,0,0,0,0
				c0.2,0,0.4-0.2,0.4-0.4c0-0.2-0.2-0.4-0.4-0.4c0,0,0,0,0,0c-0.1,0-0.1,0-0.2,0c0,0,0,0,0-0.1c0-0.2,0.5-0.7,1.3-0.7
				c0.9,0,1.2,0.5,1.2,1.3c0,1.4-0.6,1.5-1.7,1.5H46L46,25.9z M40.1,29.9c2.2-0.3,3.9-2.1,4-4.4c0-1.5-0.6-2.7-2.2-2.7
				c-1.2,0-2.2,1-2.2,2.2c0,0,0,0.1,0,0.1c-0.1,1.1,0.7,2,1.8,2.1c0.1,0,0.1,0,0.2,0c0.6,0,1.2-0.3,1.5-0.9h0
				c-0.2,2.1-1.1,3.1-3.1,3.4L40.1,29.9z M40.6,25.1c0-0.9,0.1-2.1,1.3-2.1c1.2,0,1.3,1.3,1.3,2.6c0,0.1,0,0.3,0,0.4
				c-0.2,0.6-0.7,1.1-1.3,1.1C40.8,27.1,40.6,26,40.6,25.1 M36.9,29.5H36v0.2h2.8v-0.2h-0.9v-6.6h-0.4c-0.7,0.6-1.4,1.2-2.2,1.6v0.2
				c0.5-0.3,1-0.5,1.6-0.7c0.1,0,0.1,0.1,0.1,0.2L36.9,29.5z M30.9,31.6c0.6-0.4,0.9-1,0.9-1.7c0-0.6-0.3-1-0.9-1
				c-0.3,0-0.5,0.2-0.6,0.4c0,0,0,0,0,0.1c0,0.2,0.2,0.4,0.4,0.4c0,0,0,0,0,0c0.2,0,0.4-0.1,0.4-0.4c0-0.2-0.1-0.3-0.2-0.4l0,0
				c0.5,0.1,0.6,0.5,0.6,0.9c0,0.7-0.3,1.3-0.9,1.7L30.9,31.6z M28.3,28c0,0.8,0,1.6-1.1,1.6S26,28.9,26,28v-0.8
				c0-0.8,0-1.6,1.1-1.6s1.1,0.8,1.1,1.6V28z M25.1,27.6c0,1.1,1,2,2.1,2c1.1,0,2-1,2-2.1c0-1.1-1-2-2.1-2
				C26,25.5,25.1,26.4,25.1,27.6C25.1,27.6,25.1,27.6,25.1,27.6 M20,29.5h-0.8v0.2h2.3v-0.2h-0.7v-2.7c0.2-0.3,0.6-1.1,1.4-1.1
				c0.3,0,0.6,0.2,0.6,0.7v3.2H22v0.2h2.4v-0.2h-0.8v-2.9c0-0.6-0.3-1.1-1.3-1.1c-0.6,0-1.2,0.4-1.5,1h0v-1
				c-0.2,0.2-0.4,0.2-0.8,0.2h-0.8v0.2H20L20,29.5z M17.1,27.6v1.3c-0.1,0.5-0.6,0.8-1.1,0.7c-0.6,0-0.7-0.4-0.7-0.9
				c0-1,0.9-1.1,1.6-1.1L17.1,27.6z M17.9,26.6c0-0.7-0.9-1.1-1.6-1.1c-1,0-1.5,0.5-1.5,1c0,0.3,0.2,0.5,0.4,0.5
				c0.2,0,0.4-0.2,0.4-0.4c0,0,0,0,0,0c0-0.4-0.3-0.3-0.3-0.6c0-0.3,0.7-0.5,0.9-0.5c0.4,0,0.8,0.1,0.8,0.6v1.2h-0.2
				c-1,0-2.5,0.3-2.5,1.4c0,0.7,0.5,1,1.2,1c0.5,0.1,1.1-0.2,1.4-0.6h0c0.1,0.4,0.5,0.6,0.9,0.6c0.4,0,0.7-0.2,0.9-0.5l-0.1-0.1
				c-0.1,0.2-0.3,0.4-0.5,0.4c-0.3,0-0.3-0.2-0.3-0.4L17.9,26.6z M12,29.5h-0.8v0.2h2.4v-0.2h-0.8v-7c-0.2,0.2-0.5,0.3-0.8,0.2h-0.8
				V23H12L12,29.5z M9,23.8c0,0.3,0.2,0.5,0.5,0.5c0.3,0,0.5-0.2,0.5-0.5s-0.2-0.5-0.5-0.5c0,0,0,0,0,0C9.3,23.3,9,23.5,9,23.8
				 M9.1,29.5H8.3v0.2h2.4v-0.2H9.9v-4c-0.2,0.2-0.5,0.3-0.8,0.2H8.3v0.2h0.8L9.1,29.5z M0.9,28.7c0,0.6-0.1,0.8-0.6,0.8H0v0.2h2
				v-0.2H1.6c-0.5,0-0.6-0.2-0.6-0.8v-5.2h0l2.4,6h0.1l2.4-6.1h0v6.1H5v0.2h2.8v-0.2H6.9V23h0.9v-0.2H6l-2,5.1l-2.1-5.1H0V23h0.9
				L0.9,28.7z"/>
		</g>
	</g>
</g>
</svg>
