<?xml version="1.0" encoding="utf-8"?>
<!-- Generator: Adobe Illustrator 26.5.2, SVG Export Plug-In . SVG Version: 6.00 Build 0)  -->
<svg version="1.1" id="레이어_1" xmlns="http://www.w3.org/2000/svg" xmlns:xlink="http://www.w3.org/1999/xlink" x="0px"
	 y="0px" viewBox="0 0 360 180" style="enable-background:new 0 0 360 180;" xml:space="preserve">
<style type="text/css">
	.st0{fill:#FFFFFF;}
</style>
<g id="img_main_logo_gessi" transform="translate(-3560 -1517)">
	<g id="logo" transform="translate(3713 1593)">
		<path id="패스_20" class="st0" d="M17.5,3.2h-3.6C7.9,3.3,3.2,8.1,3.2,14.1c0,5.3,4.5,10.8,10,10.8c0.1,0,1,0,1,0v-9H8.7v-3.2
			h8.8v15.5h-3.6C6.1,28-0.1,21.7,0,13.9C0.1,6.3,6.2,0.1,13.8,0h3.6L17.5,3.2z"/>
		<path id="패스_21" class="st0" d="M42.1,3.2c-3.4,0-2.7,3.1-1.7,4.9c0.8,1.4,1.7,2.8,2.7,4.4c2.1,3.5,3.2,6.8,1.7,10.2
			c-1.9,4-4.9,5.1-8.5,5.5v-3.2c2.3-0.2,4.3-1,5.5-3.6c2.1-4.7-4.9-10.4-5.5-14.8C35.7,1.6,40,0,42.1,0h1.6v3.2L42.1,3.2z"/>
		<path id="패스_22" class="st0" d="M18.8,0H27l0,3.2h-4.9v2.1h2.7v3.2h-2.7v16.3H27v3.2h-8.2L18.8,0z"/>
		<rect id="사각형_329" x="46.4" class="st0" width="3.2" height="28.2"/>
		<path id="패스_23" class="st0" d="M34,3.2c-3.4,0-2.7,3.1-1.7,4.9c0.8,1.4,1.7,2.8,2.7,4.4c2.1,3.5,3.2,6.8,1.7,10.2
			c-1.9,4-4.9,5.1-8.5,5.5v-3.2c2.3-0.2,4.3-1,5.5-3.6c2.1-4.7-4.9-10.4-5.5-14.8C27.5,1.6,31.9,0,33.9,0h1.6v3.2L34,3.2z"/>
		<path id="패스_24" class="st0" d="M52.3,0c-1,0-1.7,0.8-1.7,1.7s0.8,1.7,1.7,1.7c1,0,1.7-0.8,1.7-1.7C54,0.8,53.3,0,52.3,0
			C52.3,0,52.3,0,52.3,0z M52.3,0.2c0.8,0,1.5,0.6,1.5,1.5c0,0.8-0.6,1.5-1.5,1.5c-0.8,0-1.5-0.6-1.5-1.5c0,0,0,0,0,0
			C50.8,0.9,51.4,0.3,52.3,0.2C52.2,0.2,52.2,0.2,52.3,0.2z M51.9,1.8h0.4l0.6,0.9h0.3l-0.6-0.9c0.3,0,0.5-0.3,0.5-0.6
			c0-0.4-0.2-0.6-0.7-0.6h-0.8v2h0.2L51.9,1.8z M51.9,1.6V0.9h0.5c0.2,0,0.5,0.1,0.5,0.3c0,0.3-0.3,0.4-0.6,0.4L51.9,1.6z"/>
	</g>
</g>
</svg>
