<?xml version="1.0" encoding="utf-8"?>
<!-- Generator: Adobe Illustrator 26.5.2, SVG Export Plug-In . SVG Version: 6.00 Build 0)  -->
<svg version="1.1" id="레이어_1" xmlns="http://www.w3.org/2000/svg" xmlns:xlink="http://www.w3.org/1999/xlink" x="0px"
	 y="0px" viewBox="0 0 360 180" style="enable-background:new 0 0 360 180;" xml:space="preserve">
<style type="text/css">
	.st0{fill:#FFFFFF;}
	.st1{fill:#FFFFFF;enable-background:new    ;}
</style>
<g id="img_main_logo_kvadrat" transform="translate(-3781 -1615)">
	<g id="logo" transform="translate(13 2)">
		<g id="logo-2" transform="translate(3848 1694)">
			<path id="패스_189" class="st0" d="M34.6,15.1c-0.5,0.5-1.1,0.8-1.8,0.8c-1,0-1.9-0.6-2.3-1.6c-0.3-0.7-0.5-1.6-0.4-2.4
				c-0.1-1.1,0.2-2.1,0.8-3c0.5-0.7,1.2-1.1,2-1.1c0.6,0,1.2,0.3,1.6,0.7c0.8,0.9,1.1,2.1,1,3.2C35.7,12.9,35.4,14.1,34.6,15.1
				 M50.1,15.1c-0.5,0.5-1.1,0.8-1.8,0.8c-1,0-2-0.6-2.3-1.6c-0.3-0.7-0.5-1.6-0.4-2.4c-0.1-1.1,0.2-2.2,0.8-3c0.5-0.6,1.2-1,2-1
				c0.6,0,1.2,0.3,1.6,0.7c0.8,0.9,1.1,2.1,1,3.2C51.2,12.9,50.9,14.1,50.1,15.1 M74.9,15.1c-0.9,1-2.4,1-3.4,0.1
				c-0.3-0.3-0.5-0.6-0.6-1c-0.3-0.7-0.5-1.5-0.5-2.4c-0.1-1.1,0.2-2.1,0.9-3c0.5-0.7,1.3-1,2.1-1c0.6,0,1.2,0.3,1.6,0.7
				c0.8,0.9,1.1,2.1,1,3.2C76,12.9,75.7,14.1,74.9,15.1 M21.9,5l-2.3,8.5L17.1,5H8.8l-4.5,5.4V0H0v18.8h4.3V11l4.4,7.7h5.1l-5.1-8
				L13,5.9l4.4,12.9h4.2L26.2,5L21.9,5z M39.9,5h-4.3v1c-0.9-0.8-2.1-1.3-3.4-1.3c-1.6,0-3.1,0.6-4.3,1.7c-1.5,1.5-2.3,3.6-2.2,5.7
				c-0.1,1.8,0.5,3.7,1.7,5.1c1.1,1.3,2.8,2,4.4,1.9c1.4,0.1,2.8-0.6,3.6-1.8v1.5h4.3L39.9,5z M55.4,0h-4.2v6
				c-1-0.8-2.2-1.3-3.4-1.3c-1.6,0-3.2,0.6-4.3,1.7c-1.5,1.5-2.3,3.6-2.2,5.7c-0.1,1.9,0.6,3.7,1.8,5.1c1.1,1.2,2.7,1.9,4.4,1.9
				c1.4,0.1,2.8-0.6,3.6-1.8v1.5h4.3L55.4,0z M65.6,4.8c-0.4,0-0.6-0.1-0.7-0.1c-1.6,0-3.1,1-3.6,2.5V5h-4.1v13.8h4.3v-4.2
				c0-1.8,0-3,0.1-3.6c0.1-0.5,0.2-1,0.5-1.4c0.6-0.7,1.5-1.1,2.5-1c0.3,0,0.6,0,0.9,0.1L65.6,4.8z M80.2,5H76v1
				c-0.9-0.8-2.1-1.3-3.4-1.3c-1.6,0-3.2,0.6-4.3,1.7c-1.5,1.5-2.3,3.6-2.2,5.7c-0.1,1.8,0.5,3.7,1.7,5.1c1.1,1.3,2.8,2,4.4,1.9
				c1.4,0.1,2.8-0.6,3.7-1.8v1.5h4.2L80.2,5z M90,5h-2.1V0.9h-4V5h-2.1v3h2v10.8H88V8h2L90,5z"/>
		</g>
		<g id="logo-3" transform="translate(3962 1693)">
			<path id="패스_190" class="st0" d="M0,18.5v-4.7h0.3L1.6,17c1,1.3,2.6,2.1,4.2,2.2c1.9,0.1,3.5-1.4,3.6-3.3c0,0,0-0.1,0-0.1
				c0-1.7-0.9-2.8-3-4.2l-3.1-2C1.5,8.5,0.3,7.5,0.3,5.3c0-2.7,1.9-4.6,5.8-5.3c1.7,0,3.4,0.4,5,1.1v4.6h-0.3L9.3,2
				C8.5,1.1,7.2,0.6,6,0.6c-1.7-0.2-3.2,1-3.4,2.7c0,0.1,0,0.3,0,0.4c0,1.6,1.1,2.5,2.7,3.6l3.1,2c2.2,1.3,3.2,2.7,3.2,4.8
				c0,2.4-1.4,4.8-6.3,5.9C3.4,20.1,1.6,19.5,0,18.5z"/>
			<path id="패스_191" class="st0" d="M22.8,12.8h-6.6L14,19l2.2,0.2v0.4h-4.5v-0.4l1.8-0.2l6.3-18.3L21.7,0l6.2,19l1.8,0.2v0.4
				h-7.2v-0.4l2.2-0.2L22.8,12.8z M16.4,12.3h6.2l-3-9.5L16.4,12.3z"/>
			<path id="패스_192" class="st0" d="M30.4,0.8V0.4h7v0.4l-2,0.2v8.3h8.3V1l-2.1-0.2V0.4h7v0.4l-2,0.2v18l2,0.2v0.4h-7v-0.4
				l2.1-0.2V9.9h-8.3V19l2,0.2v0.4h-7v-0.4l2.1-0.2V1L30.4,0.8z"/>
			<path id="패스_193" class="st0" d="M50.3,10.4c0-6.2,3.5-9.8,9.2-10.4c2.1-0.1,4.1,0.4,6,1.4v4.7h-0.3L63.4,2
				c-0.9-1.1-2.4-1.7-3.8-1.5c-3.2,0-6,3-6,9.4c0,5.1,2.2,9.5,6.6,9.5c1.3,0,2.6-0.5,3.6-1.5l1.7-4.4h0.3v4.7c-2,1-4.1,1.5-6.2,1.7
				C54.7,20,50.3,16.8,50.3,10.4z"/>
			<path id="패스_194" class="st0" d="M67.8,10.4c0-5.8,3.2-9.5,9.3-10.4C82.3,0,86,4.2,86,9.6c0,5.8-3.2,9.5-9.4,10.4
				C71.2,20,67.8,15.7,67.8,10.4z M82.7,10.5c0-5.7-2.7-9.7-6.3-9.7c-2.9,0-5.3,3.4-5.3,8.8c0,5.7,2.7,9.7,6.3,9.7
				C80.3,19.3,82.7,15.8,82.7,10.5L82.7,10.5z"/>
		</g>
		<circle id="타원_1" class="st1" cx="3950" cy="1703" r="2"/>
	</g>
</g>
</svg>
