<?xml version="1.0" encoding="utf-8"?>
<!-- Generator: Adobe Illustrator 26.5.2, SVG Export Plug-In . SVG Version: 6.00 Build 0)  -->
<svg version="1.1" id="레이어_1" xmlns="http://www.w3.org/2000/svg" xmlns:xlink="http://www.w3.org/1999/xlink" x="0px"
	 y="0px" viewBox="0 0 360 180" style="enable-background:new 0 0 360 180;" xml:space="preserve">
<style type="text/css">
	.st0{fill:#FFFFFF;}
</style>
<g id="img_main_logo_laufen" transform="translate(-3381 -1517)">
	<g id="logo" transform="translate(3501 1595)">
		<path id="패스_31" class="st0" d="M0,0.5h2.8l0,18.5l11,0v2.3H0L0,0.5z"/>
		<path id="패스_32" class="st0" d="M59.3,13.8c0,5.2-3.1,8-8.3,8c-5.4,0-8.6-2.5-8.6-8V0.5h2.8v13.3c0,3.7,2.2,5.7,5.9,5.7
			c3.5,0,5.5-2,5.5-5.7l0-13.3h2.8L59.3,13.8z"/>
		<path id="패스_33" class="st0" d="M65.4,0.6l13.7,0v2.3H68.1v6.6h9.6v2.3h-9.6v9.5h-2.8L65.4,0.6z"/>
		<path id="패스_34" class="st0" d="M83.9,0.6l14.4,0v2.3l-11.6,0v6.6h10.8l0,2.3l-10.8,0v7.2h11.7v2.3l-14.5,0V0.6z"/>
		<path id="패스_35" class="st0" d="M103.4,0.6h2.9l11,16.9h0.1l0-16.9h2.6l0,20.8h-3L106.1,4.7H106v16.7h-2.6L103.4,0.6z"/>
		<path id="패스_36" class="st0" d="M27.6,15.6v8.5l2.6-2.7v-8.5L27.6,15.6z"/>
		<path id="패스_37" class="st0" d="M25.6,19h-4.9l8.1-14.1L37,19h-4.8l0,2.4h9L28.9,0L16.5,21.4h9.1L25.6,19z"/>
	</g>
</g>
</svg>
