<?xml version="1.0" encoding="utf-8"?>
<!-- Generator: Adobe Illustrator 26.5.2, SVG Export Plug-In . SVG Version: 6.00 Build 0)  -->
<svg version="1.1" id="레이어_1" xmlns="http://www.w3.org/2000/svg" xmlns:xlink="http://www.w3.org/1999/xlink" x="0px"
	 y="0px" viewBox="0 0 360 180" style="enable-background:new 0 0 360 180;" xml:space="preserve">
<style type="text/css">
	.st0{fill:#FFFFFF;enable-background:new    ;}
</style>
<g id="img_main_logo_louispoulsen" transform="translate(-3564 -1615)">
	<path id="logo" class="st0" d="M3746.7,1702.8h-3.3v17.4h3.3V1702.8z M3720.5,1713.8c0-2,0.7-4.1,3-4.1c2.3,0,3,2,3,4.1
		c0,2-0.7,4-3,4C3721.1,1717.9,3720.5,1715.8,3720.5,1713.8 M3716.9,1713.8c0,4.2,2.6,7,6.5,7c4,0,6.6-2.8,6.6-7c0-4.2-2.6-7-6.6-7
		C3719.5,1706.8,3716.9,1709.6,3716.9,1713.8 M3704.1,1701.5h3.3V1684h-3.3V1701.5z M3710.1,1709.9c2.1,0,2.8,2,2.8,3.9
		c0,2-0.7,3.8-2.8,3.8c-2.1,0-2.9-1.9-2.9-3.8S3707.9,1709.9,3710.1,1709.9 M3710.9,1706.9c-1.5-0.1-2.9,0.7-3.7,2h0v-1.7h-3.2v18
		h3.3v-6.4h0c0.8,1.2,2.2,1.9,3.6,1.9c3.5,0,5.3-3.4,5.3-6.8C3716.3,1710.1,3714.8,1706.9,3710.9,1706.9 M3717.9,1695c0,2-0.7,4-3,4
		c-2.3,0-3-2-3-4c0-2,0.7-4.1,3-4.1C3717.2,1691,3717.9,1693,3717.9,1695 M3721.4,1695c0-4.2-2.6-7-6.6-7c-4,0-6.5,2.8-6.5,7
		c0,4.2,2.6,6.9,6.5,6.9C3718.8,1702,3721.4,1699.2,3721.4,1695 M3730.4,1701.5h3.2v-12.9h-3.4v6.8c0,2.6-0.8,3.7-2.6,3.7
		c-1.6,0-2.2-1.1-2.2-3.2v-7.3h-3.4v8.7c0,3.4,2.3,4.6,4.5,4.6c1.6,0.1,3-0.8,3.7-2.1h0.1L3730.4,1701.5z M3736.3,1717.8
		c-1.5,0-2.3-1.1-2.3-3v-7.6h-3.4v8.4c0,2.6,0.9,4.9,4.5,4.9c1.6,0.1,3.1-0.7,3.7-2.1h0.1v1.7h3.2v-12.9h-3.4v7.2
		C3738.8,1716.7,3737.8,1717.8,3736.3,1717.8 M3734.7,1701.5h3.4v-12.9h-3.4V1701.5z M3734.7,1686.9h3.5v-2.9h-3.5V1686.9z
		 M3742.5,1691.8c0-0.7,1.1-1.2,1.9-1.2c1.1-0.2,2.2,0.6,2.3,1.8c0,0,0,0,0,0.1h3.3c-0.3-3.3-2.8-4.4-5.5-4.4
		c-2.4,0-5.3,1.2-5.3,4.3c0,2.3,1.4,3.3,3.9,3.8c2.5,0.6,3.8,0.6,3.8,1.6c0,1.2-1.3,1.4-2.3,1.4c-1.3,0-2.3-0.4-2.5-2h-3.4
		c0.2,3.4,3,4.5,5.9,4.5c2.9,0,5.7-0.9,5.7-4.5c0-2.4-2-3.3-4-3.8C3744.4,1693.1,3742.5,1693,3742.5,1691.8 M3751.1,1710.6
		c0-0.8,1.1-1.2,1.9-1.2c1.3,0,2.2,0.4,2.3,1.8h3.3c-0.3-3.2-2.6-4.4-5.4-4.4c-2.5,0-5.5,1.1-5.5,4.3c0,2.4,1.4,3.3,3.8,3.9
		c2.5,0.6,3.9,0.6,3.9,1.7c0,1.1-1.2,1.4-2.2,1.4c-1.5,0-2.6-0.6-2.6-2h-3.4c0,3.4,2.8,4.6,5.9,4.6c3,0,5.7-1,5.7-4.5
		c0-2.4-1.9-3.3-4-3.8C3753,1711.9,3751.1,1711.7,3751.1,1710.6 M3768.1,1712.4h-5.1c0-1.5,1.2-2.7,2.7-2.7c1.4,0.1,2.5,1.2,2.4,2.6
		C3768.1,1712.3,3768.1,1712.4,3768.1,1712.4 M3771.6,1714.7c0.3-4.4-1.4-7.9-5.9-7.9c-3.9,0-6.2,2.9-6.2,6.9c0,4.2,1.9,6.9,6.4,6.9
		c2.6,0.1,5-1.7,5.5-4.3h-3.4c-0.3,1-1.2,1.6-2.2,1.5c-1.3,0-2.7-0.9-2.9-3.1H3771.6z M3784,1720.1v-7.9c0-3.2-0.9-5.4-4.5-5.4
		c-1.6-0.1-3.1,0.8-3.8,2.2h-0.1v-1.8h-3.2v12.9h3.4v-6.8c0-2.6,1-3.7,2.6-3.7c1.7,0,2.2,1,2.2,3.2v7.3L3784,1720.1z"/>
</g>
</svg>
