<?xml version="1.0" encoding="utf-8"?>
<!-- Generator: Adobe Illustrator 26.5.2, SVG Export Plug-In . SVG Version: 6.00 Build 0)  -->
<svg version="1.1" id="레이어_1" xmlns="http://www.w3.org/2000/svg" xmlns:xlink="http://www.w3.org/1999/xlink" x="0px"
	 y="0px" viewBox="0 0 360 180" style="enable-background:new 0 0 360 180;" xml:space="preserve">
<style type="text/css">
	.st0{fill:#FFFFFF;enable-background:new    ;}
</style>
<g id="img_main_logo_molteni" transform="translate(-3283 -1359)">
	<path id="logo" class="st0" d="M3418.1,1439.3h2.8v-0.8h-7.3l-4.2,14.6l-4-14.6h-7.4v0.8h2.8v19.8h-2.8v0.8h6.6v-0.8h-2.8v-19.2
		h0.1l5.7,20h1l5.8-20h0.1v19.2h-2.9v0.8h9.4v-0.8h-2.8V1439.3z M3429.5,1453.7c0,4.2-0.1,5.9-2.6,5.9s-2.6-1.8-2.6-5.9
		c0-3.6-0.2-6.1,2.6-6.1S3429.5,1450.1,3429.5,1453.7 M3433,1453.7c0-3.6-2.8-6.7-6-6.7s-6,3.2-6,6.7s2.8,6.6,6,6.6
		S3433,1457.3,3433,1453.7 M3440.4,1459h-2.1v-21c-1.7,0.4-3.4,0.5-5.2,0.5v0.8h2.1v19.8h-2.2v0.8h7.4L3440.4,1459z M3448.7,1457.7
		l-0.6-0.3c-0.3,0.9-0.8,1.7-1.8,1.7c-1.1,0-1.1-0.7-1.1-1.8v-8.8h2.7v-1h-2.7v-3.9c-1,0.1-2.1,0.2-3.1,0.2v3.7h-1.8v1h1.8v9.1
		c0,1.8,0.4,2.7,3.1,2.7C3446.8,1460.4,3448.3,1459.3,3448.7,1457.7 M3452.3,1452c0-2-0.2-4.4,2.1-4.4c2.6,0,2.1,2.2,2.1,4.4H3452.3
		z M3452.3,1455.3v-2.6h6.7c0.5,0,0.7,0.1,0.7-0.6c0.1-2.8-2.2-5.2-5-5.2c0,0-0.1,0-0.1,0c-3.1,0-5.7,3.2-5.7,6.7
		c0,3.3,2.3,6.6,5.4,6.6c2.8,0,4.8-1.4,5.5-4.5h-0.7c-0.6,2.2-2.2,3.8-4.2,3.8C3452.4,1459.7,3452.3,1457.6,3452.3,1455.3
		 M3468.4,1459.8h6.7v-0.8h-1.8v-5.9c0-3.2,0.3-6.1-3.5-6.1c-2.1,0-3.4,1.1-4.3,3.1h0v-3c-1.8,0.1-3.5,0.2-5,0.1v0.8h2v11.1h-2v0.8
		h6.8v-0.8h-1.8v-4.2c-0.1-1.4,0-2.7,0.4-4c0.4-1.2,1.6-2.7,2.8-2.7c1.9,0,1.6,2.2,1.6,5.2v5.8h-1.8L3468.4,1459.8z M3481.1,1441.2
		c0-0.9-0.8-1.7-1.7-1.7c-0.9,0.1-1.5,0.8-1.5,1.7c-0.1,0.9,0.6,1.8,1.5,1.9C3480.3,1443,3481.1,1442.2,3481.1,1441.2
		C3481.1,1441.2,3481.1,1441.2,3481.1,1441.2 M3475.9,1459.8h7.3v-0.8h-2.1v-12c-1.8,0.1-3.5,0.2-5.2,0.1v0.8h2.1v11.1h-2.1
		L3475.9,1459.8z M3499.2,1457.2c-1.1,1.1-2.5,1.8-4.1,1.9c-1.5,0-2.3-0.9-3.1-2.2c-0.9-1.4-1.5-2.9-1.6-4.6c0-2.5,1.4-3.2,3.2-4.1
		L3499.2,1457.2z M3496.5,1446.1l-1.4-2.3c-0.5-0.7-0.8-1.6-0.9-2.5c-0.1-1.2,0.8-2.3,2-2.4c0.1,0,0.2,0,0.3,0
		c1.9,0,2.5,1.4,2.5,3.3C3499,1444.2,3498.3,1445.5,3496.5,1446.1 M3500.8,1459.8h6.7v-0.8h-2.8l-2.5-4c1.6-2.2,2.5-4.8,2.6-7.6h2.7
		v-0.8h-6.4v0.8h2.8c0,2.5-0.8,4.8-2.2,6.8l-4.7-7.4c1.8-0.8,4.7-2.2,4.7-4.8c0-2.9-2.9-3.8-5-3.8c-2.6,0-5.1,1.6-5.1,4.8
		c0.2,1.7,0.7,3.3,1.6,4.7c-2.8,1.3-6.1,2.9-6.1,7c0,3.9,2.9,5.9,6.2,5.9c2.4,0,4.7-0.9,6.4-2.5L3500.8,1459.8z M3515.3,1449.6
		c0-2.6-0.3-6.3,1.2-8.6c1.1-1.7,2.2-2.2,4.2-2.2c3.1,0,5.6,2.2,6,5.7h0.9v-6.2h-0.7l-1.3,1.3c-1.4-1.1-3.2-1.7-5-1.7
		c-1.5,0-3,0.3-4.3,1.1c-3.6,2.2-5.8,6-5.8,10.2c0,5.3,4.3,11,9.9,11c2,0,3.9-0.6,5.5-1.8l1.3,1.5h0.7v-6.6h-0.9
		c-0.9,3.5-2.7,6.2-6.7,6c-2.1,0-4-1.5-4.5-3.6C3515.4,1453.9,3515.2,1451.7,3515.3,1449.6"/>
</g>
</svg>
