<?xml version="1.0" encoding="utf-8"?>
<!-- Generator: Adobe Illustrator 26.5.2, SVG Export Plug-In . SVG Version: 6.00 Build 0)  -->
<svg version="1.1" id="레이어_1" xmlns="http://www.w3.org/2000/svg" xmlns:xlink="http://www.w3.org/1999/xlink" x="0px"
	 y="0px" viewBox="0 0 360 180" style="enable-background:new 0 0 360 180;" xml:space="preserve">
<style type="text/css">
	.st0{fill:#FFFFFF;}
</style>
<g>
	<g>
		<path class="st0" d="M183.4,100.2h0.8v2.5l2.4-2.5h1.1l-2.7,2.7l2.9,3h-1.2l-2.5-2.8v2.8h-0.8V100.2z"/>
		<path class="st0" d="M193.2,103.5c0,1.6-0.8,2.4-2.2,2.4c-1.4,0-2.2-0.9-2.2-2.4v-3.3h0.8v3.2c0,1.1,0.3,1.8,1.4,1.8
			c1,0,1.4-0.7,1.4-1.8v-3.2h0.8V103.5z M190,98.9h0.8v0.8H190V98.9z M191.3,98.9h0.8v0.8h-0.8V98.9z"/>
		<path class="st0" d="M198.6,101.1c-0.4-0.2-0.8-0.3-1.2-0.3c-1.3,0-2.2,0.9-2.2,2.2c0,1.3,1,2.2,2.1,2.2c0.4,0,0.9-0.1,1.2-0.3
			l0,0.8c-0.4,0.2-1,0.2-1.3,0.2c-1.8,0-3-1.2-3-2.9c0-1.7,1.3-2.9,3-2.9c0.4,0,0.9,0.1,1.3,0.2L198.6,101.1z"/>
		<path class="st0" d="M199.7,100.2h0.8v2.4h2.7v-2.4h0.8v5.7h-0.8v-2.6h-2.7v2.6h-0.8V100.2z"/>
		<path class="st0" d="M205.5,100.2h3.2v0.7h-2.4v1.7h2.1v0.7h-2.1v1.9h2.4v0.7h-3.2V100.2z"/>
		<path class="st0" d="M210,100.2h1.1l2.5,4.6h0v-4.6h0.8v5.7h-1l-2.6-4.7h0v4.7H210V100.2z"/>
	</g>
	<rect x="144.8" y="95.2" class="st0" width="70" height="3.1"/>
	<polygon class="st0" points="178.9,75.2 185.4,75.2 185.4,93.5 178.9,93.5 	"/>
	<path class="st0" d="M194.7,75.1v5.7h4.1v3.9h-4.1v2.8c0,0.9,0.9,1.4,1.8,1.4c1.3,0,2.6-1.3,2.6-1.3v5c0,0-3,1.5-4.6,1.6
		c-3.6,0.1-6.3-2.2-6.3-4.7l-0.1-4.8H186v-2.7l7.1-7H194.7z"/>
	<path class="st0" d="M169.7,78.6c-4.5,0-8.7,2.8-8.5,7.8c0.2,4.7,4.3,7.8,9,7.6c4.4-0.2,8.3-3.1,8.2-7.6
		C178.3,80.9,174.3,78.6,169.7,78.6 M169.9,88.7c-1.3,0.1-2.3-1-2.3-2.3c0-1.3,0.9-2.5,2.1-2.5c1.4,0,2.3,1.2,2.3,2.5
		C171.9,87.6,171.1,88.7,169.9,88.7"/>
	<path class="st0" d="M212.7,78.6c1.1,0,1.9-0.8,1.9-1.8c0-1-0.9-1.8-1.9-1.8c-1,0-1.8,0.8-1.8,1.8
		C210.9,77.9,211.7,78.7,212.7,78.6 M212.7,75.4c0.9,0,1.6,0.7,1.6,1.5c0,0.9-0.7,1.5-1.6,1.5c-0.8,0-1.5-0.7-1.6-1.5
		C211.2,76,211.9,75.4,212.7,75.4 M213.1,77c0.3,0,0.5-0.2,0.5-0.5c0-0.5-0.4-0.6-0.7-0.6H212v2h0.3V77h0.4l0.5,0.9h0.3L213.1,77z
		 M212.8,76.1c0.3,0,0.5,0,0.5,0.3c0,0.3-0.4,0.3-0.7,0.3h-0.3v-0.6H212.8z"/>
	<path class="st0" d="M207.5,78.6c2.4,0.1,4.2,0.6,5.9,2.4c1.6,1.9,1.4,6.3,1.3,6.4h-9.1c0,0,0.5,2.3,3.8,2.3
		c2.2-0.1,5.4-0.7,5.4-0.6v3.2c0,0-3.5,2-6.4,2c-5.3,0-8.9-3.2-8.8-7.8C199.5,82.1,202.3,78.5,207.5,78.6 M205.4,85.1h4.2
		c0,0-0.3-2.3-2.1-2.3C205.5,82.8,205.5,85,205.4,85.1"/>
	<path class="st0" d="M144.8,79v14.5h6.2v-7.4c0-0.7,1-1.8,2-1.8c0.9,0,1.4,0.8,1.4,1.7v7.6h6.2v-9.6c0-1.6-1.1-4.1-3-4.8
		c-1.4-0.6-2.5-0.5-4-0.2c-1.1,0.2-1.7,0.5-2.6,1.1v-1H144.8z"/>
</g>
</svg>
